<mxfile host="app.diagrams.net" agent="Mozilla/5.0 (Windows NT 10.0; Win64; x64) AppleWebKit/537.36 (KHTML, like Gecko) Chrome/128.0.0.0 Safari/537.36 OPR/114.0.0.0" version="25.0.3">
  <diagram name="PÃ¡gina-1" id="ZYrXFXTMh5Co8lFkQm1W">
    <mxGraphModel dx="3845" dy="1156" grid="1" gridSize="10" guides="1" tooltips="1" connect="1" arrows="1" fold="1" page="1" pageScale="1" pageWidth="827" pageHeight="1169" math="0" shadow="0">
      <root>
        <mxCell id="0" />
        <mxCell id="1" parent="0" />
        <mxCell id="eIzoueygHuHwb89tyksf-4" value="&lt;font style=&quot;font-size: 18px;&quot;&gt;Cliente&lt;/font&gt;" style="text;html=1;align=center;verticalAlign=middle;resizable=0;points=[];autosize=1;strokeColor=none;fillColor=none;" parent="1" vertex="1">
          <mxGeometry x="-1120" y="410" width="80" height="40" as="geometry" />
        </mxCell>
        <mxCell id="xBQm6iWofpUOaXLiv4rK-24" value="" style="sketch=0;outlineConnect=0;fontColor=#232F3E;gradientColor=none;fillColor=#0000CD;strokeColor=none;dashed=0;verticalLabelPosition=bottom;verticalAlign=top;align=center;html=1;fontSize=12;fontStyle=0;aspect=fixed;pointerEvents=1;shape=mxgraph.aws4.user;" parent="1" vertex="1">
          <mxGeometry x="-1120" y="455" width="77" height="77" as="geometry" />
        </mxCell>
        <mxCell id="Vf5IzShE180shMKCOmAt-81" value="AWS Cloud" style="points=[[0,0],[0.25,0],[0.5,0],[0.75,0],[1,0],[1,0.25],[1,0.5],[1,0.75],[1,1],[0.75,1],[0.5,1],[0.25,1],[0,1],[0,0.75],[0,0.5],[0,0.25]];outlineConnect=0;gradientColor=none;html=1;whiteSpace=wrap;fontSize=12;fontStyle=0;container=1;pointerEvents=0;collapsible=0;recursiveResize=0;shape=mxgraph.aws4.group;grIcon=mxgraph.aws4.group_aws_cloud;strokeColor=#232F3E;fillColor=none;verticalAlign=top;align=left;spacingLeft=30;fontColor=#232F3E;dashed=0;" parent="1" vertex="1">
          <mxGeometry x="-760" y="20" width="2060" height="960" as="geometry" />
        </mxCell>
        <mxCell id="Vf5IzShE180shMKCOmAt-80" value="VPC" style="points=[[0,0],[0.25,0],[0.5,0],[0.75,0],[1,0],[1,0.25],[1,0.5],[1,0.75],[1,1],[0.75,1],[0.5,1],[0.25,1],[0,1],[0,0.75],[0,0.5],[0,0.25]];outlineConnect=0;gradientColor=none;html=1;whiteSpace=wrap;fontSize=12;fontStyle=0;container=1;pointerEvents=0;collapsible=0;recursiveResize=0;shape=mxgraph.aws4.group;grIcon=mxgraph.aws4.group_vpc2;strokeColor=#8C4FFF;fillColor=none;verticalAlign=top;align=left;spacingLeft=30;fontColor=#AAB7B8;dashed=0;" parent="Vf5IzShE180shMKCOmAt-81" vertex="1">
          <mxGeometry x="360" y="50" width="1640" height="860" as="geometry" />
        </mxCell>
        <mxCell id="Vf5IzShE180shMKCOmAt-107" value="" style="fontStyle=0;dashed=1;html=1;whiteSpace=wrap;" parent="Vf5IzShE180shMKCOmAt-80" vertex="1">
          <mxGeometry x="119.5" y="380" width="115.5" height="110" as="geometry" />
        </mxCell>
        <mxCell id="Vf5IzShE180shMKCOmAt-3" value="" style="sketch=0;points=[[0,0,0],[0.25,0,0],[0.5,0,0],[0.75,0,0],[1,0,0],[0,1,0],[0.25,1,0],[0.5,1,0],[0.75,1,0],[1,1,0],[0,0.25,0],[0,0.5,0],[0,0.75,0],[1,0.25,0],[1,0.5,0],[1,0.75,0]];outlineConnect=0;fontColor=#232F3E;fillColor=#E7157B;strokeColor=#ffffff;dashed=0;verticalLabelPosition=bottom;verticalAlign=top;align=center;html=1;fontSize=12;fontStyle=0;aspect=fixed;shape=mxgraph.aws4.resourceIcon;resIcon=mxgraph.aws4.api_gateway;direction=west;" parent="Vf5IzShE180shMKCOmAt-80" vertex="1">
          <mxGeometry x="363.25" y="385.5" width="79.5" height="79.5" as="geometry" />
        </mxCell>
        <mxCell id="Vf5IzShE180shMKCOmAt-6" value="&lt;font style=&quot;font-size: 18px;&quot;&gt;API Gateway&lt;/font&gt;" style="text;html=1;align=center;verticalAlign=middle;resizable=0;points=[];autosize=1;strokeColor=none;fillColor=none;" parent="Vf5IzShE180shMKCOmAt-80" vertex="1">
          <mxGeometry x="338" y="466.5" width="130" height="40" as="geometry" />
        </mxCell>
        <mxCell id="Vf5IzShE180shMKCOmAt-10" value="&lt;font style=&quot;font-size: 18px;&quot;&gt;Geek Shopping&amp;nbsp;&lt;/font&gt;&lt;div&gt;&lt;font style=&quot;font-size: 18px;&quot;&gt;WebApp&lt;/font&gt;&lt;/div&gt;" style="text;html=1;align=center;verticalAlign=middle;resizable=0;points=[];autosize=1;strokeColor=none;fillColor=none;" parent="Vf5IzShE180shMKCOmAt-80" vertex="1">
          <mxGeometry x="103" y="490" width="150" height="60" as="geometry" />
        </mxCell>
        <mxCell id="Vf5IzShE180shMKCOmAt-21" value="" style="sketch=0;points=[[0,0,0],[0.25,0,0],[0.5,0,0],[0.75,0,0],[1,0,0],[0,1,0],[0.25,1,0],[0.5,1,0],[0.75,1,0],[1,1,0],[0,0.25,0],[0,0.5,0],[0,0.75,0],[1,0.25,0],[1,0.5,0],[1,0.75,0]];outlineConnect=0;fontColor=#232F3E;fillColor=#E7157B;strokeColor=#ffffff;dashed=0;verticalLabelPosition=bottom;verticalAlign=top;align=center;html=1;fontSize=12;fontStyle=0;aspect=fixed;shape=mxgraph.aws4.resourceIcon;resIcon=mxgraph.aws4.mq;" parent="Vf5IzShE180shMKCOmAt-80" vertex="1">
          <mxGeometry x="1180" y="385.5" width="78" height="78" as="geometry" />
        </mxCell>
        <mxCell id="Vf5IzShE180shMKCOmAt-64" value="&lt;font style=&quot;font-size: 18px;&quot;&gt;&amp;nbsp;MQ Broker&lt;/font&gt;" style="text;html=1;align=center;verticalAlign=middle;resizable=0;points=[];autosize=1;strokeColor=none;fillColor=none;" parent="Vf5IzShE180shMKCOmAt-80" vertex="1">
          <mxGeometry x="1159" y="463.5" width="120" height="40" as="geometry" />
        </mxCell>
        <mxCell id="Vf5IzShE180shMKCOmAt-58" value="" style="fontStyle=0;dashed=1;html=1;whiteSpace=wrap;" parent="Vf5IzShE180shMKCOmAt-80" vertex="1">
          <mxGeometry x="777.5" y="670" width="215" height="120" as="geometry" />
        </mxCell>
        <mxCell id="Vf5IzShE180shMKCOmAt-59" value="" style="sketch=0;points=[[0,0,0],[0.25,0,0],[0.5,0,0],[0.75,0,0],[1,0,0],[0,1,0],[0.25,1,0],[0.5,1,0],[0.75,1,0],[1,1,0],[0,0.25,0],[0,0.5,0],[0,0.75,0],[1,0.25,0],[1,0.5,0],[1,0.75,0]];outlineConnect=0;fontColor=#232F3E;fillColor=#ED7100;strokeColor=#ffffff;dashed=0;verticalLabelPosition=bottom;verticalAlign=top;align=center;html=1;fontSize=12;fontStyle=0;aspect=fixed;shape=mxgraph.aws4.resourceIcon;resIcon=mxgraph.aws4.ec2;" parent="Vf5IzShE180shMKCOmAt-80" vertex="1">
          <mxGeometry x="794.5" y="682" width="78" height="78" as="geometry" />
        </mxCell>
        <mxCell id="Vf5IzShE180shMKCOmAt-60" value="" style="sketch=0;points=[[0,0,0],[0.25,0,0],[0.5,0,0],[0.75,0,0],[1,0,0],[0,1,0],[0.25,1,0],[0.5,1,0],[0.75,1,0],[1,1,0],[0,0.25,0],[0,0.5,0],[0,0.75,0],[1,0.25,0],[1,0.5,0],[1,0.75,0]];outlineConnect=0;fontColor=#232F3E;fillColor=#C925D1;strokeColor=#ffffff;dashed=0;verticalLabelPosition=bottom;verticalAlign=top;align=center;html=1;fontSize=12;fontStyle=0;aspect=fixed;shape=mxgraph.aws4.resourceIcon;resIcon=mxgraph.aws4.rds;" parent="Vf5IzShE180shMKCOmAt-80" vertex="1">
          <mxGeometry x="898.9" y="682" width="78" height="78" as="geometry" />
        </mxCell>
        <mxCell id="Vf5IzShE180shMKCOmAt-61" value="&lt;font style=&quot;font-size: 18px;&quot;&gt;CouponAPI&lt;/font&gt;" style="text;html=1;align=center;verticalAlign=middle;resizable=0;points=[];autosize=1;strokeColor=none;fillColor=none;" parent="Vf5IzShE180shMKCOmAt-80" vertex="1">
          <mxGeometry x="825" y="790" width="120" height="40" as="geometry" />
        </mxCell>
        <mxCell id="Vf5IzShE180shMKCOmAt-62" value="&lt;font style=&quot;font-size: 14px;&quot;&gt;EC2&lt;/font&gt;" style="text;html=1;align=center;verticalAlign=middle;resizable=0;points=[];autosize=1;strokeColor=none;fillColor=none;" parent="Vf5IzShE180shMKCOmAt-80" vertex="1">
          <mxGeometry x="808.5" y="760" width="50" height="30" as="geometry" />
        </mxCell>
        <mxCell id="Vf5IzShE180shMKCOmAt-63" value="&lt;font style=&quot;font-size: 14px;&quot;&gt;RDS&lt;/font&gt;" style="text;html=1;align=center;verticalAlign=middle;resizable=0;points=[];autosize=1;strokeColor=none;fillColor=none;" parent="Vf5IzShE180shMKCOmAt-80" vertex="1">
          <mxGeometry x="911.5" y="760" width="50" height="30" as="geometry" />
        </mxCell>
        <mxCell id="Vf5IzShE180shMKCOmAt-41" value="" style="fontStyle=0;dashed=1;html=1;whiteSpace=wrap;" parent="Vf5IzShE180shMKCOmAt-80" vertex="1">
          <mxGeometry x="777.5" y="30" width="215" height="120" as="geometry" />
        </mxCell>
        <mxCell id="Vf5IzShE180shMKCOmAt-11" value="" style="sketch=0;points=[[0,0,0],[0.25,0,0],[0.5,0,0],[0.75,0,0],[1,0,0],[0,1,0],[0.25,1,0],[0.5,1,0],[0.75,1,0],[1,1,0],[0,0.25,0],[0,0.5,0],[0,0.75,0],[1,0.25,0],[1,0.5,0],[1,0.75,0]];outlineConnect=0;fontColor=#232F3E;fillColor=#ED7100;strokeColor=#ffffff;dashed=0;verticalLabelPosition=bottom;verticalAlign=top;align=center;html=1;fontSize=12;fontStyle=0;aspect=fixed;shape=mxgraph.aws4.resourceIcon;resIcon=mxgraph.aws4.ec2;" parent="Vf5IzShE180shMKCOmAt-80" vertex="1">
          <mxGeometry x="794.5" y="42" width="78" height="78" as="geometry" />
        </mxCell>
        <mxCell id="Vf5IzShE180shMKCOmAt-15" value="" style="sketch=0;points=[[0,0,0],[0.25,0,0],[0.5,0,0],[0.75,0,0],[1,0,0],[0,1,0],[0.25,1,0],[0.5,1,0],[0.75,1,0],[1,1,0],[0,0.25,0],[0,0.5,0],[0,0.75,0],[1,0.25,0],[1,0.5,0],[1,0.75,0]];outlineConnect=0;fontColor=#232F3E;fillColor=#C925D1;strokeColor=#ffffff;dashed=0;verticalLabelPosition=bottom;verticalAlign=top;align=center;html=1;fontSize=12;fontStyle=0;aspect=fixed;shape=mxgraph.aws4.resourceIcon;resIcon=mxgraph.aws4.rds;" parent="Vf5IzShE180shMKCOmAt-80" vertex="1">
          <mxGeometry x="898.9" y="42" width="78" height="78" as="geometry" />
        </mxCell>
        <mxCell id="Vf5IzShE180shMKCOmAt-42" value="&lt;font style=&quot;font-size: 18px;&quot;&gt;ProductAPI&lt;/font&gt;" style="text;html=1;align=center;verticalAlign=middle;resizable=0;points=[];autosize=1;strokeColor=none;fillColor=none;" parent="Vf5IzShE180shMKCOmAt-80" vertex="1">
          <mxGeometry x="827.5" y="149" width="110" height="40" as="geometry" />
        </mxCell>
        <mxCell id="Vf5IzShE180shMKCOmAt-44" value="&lt;font style=&quot;font-size: 14px;&quot;&gt;EC2&lt;/font&gt;" style="text;html=1;align=center;verticalAlign=middle;resizable=0;points=[];autosize=1;strokeColor=none;fillColor=none;" parent="Vf5IzShE180shMKCOmAt-80" vertex="1">
          <mxGeometry x="808.5" y="120" width="50" height="30" as="geometry" />
        </mxCell>
        <mxCell id="Vf5IzShE180shMKCOmAt-45" value="&lt;font style=&quot;font-size: 14px;&quot;&gt;RDS&lt;/font&gt;" style="text;html=1;align=center;verticalAlign=middle;resizable=0;points=[];autosize=1;strokeColor=none;fillColor=none;" parent="Vf5IzShE180shMKCOmAt-80" vertex="1">
          <mxGeometry x="911.5" y="120" width="50" height="30" as="geometry" />
        </mxCell>
        <mxCell id="Vf5IzShE180shMKCOmAt-46" value="" style="fontStyle=0;dashed=1;html=1;whiteSpace=wrap;" parent="Vf5IzShE180shMKCOmAt-80" vertex="1">
          <mxGeometry x="775" y="230" width="215" height="120" as="geometry" />
        </mxCell>
        <mxCell id="Vf5IzShE180shMKCOmAt-47" value="" style="sketch=0;points=[[0,0,0],[0.25,0,0],[0.5,0,0],[0.75,0,0],[1,0,0],[0,1,0],[0.25,1,0],[0.5,1,0],[0.75,1,0],[1,1,0],[0,0.25,0],[0,0.5,0],[0,0.75,0],[1,0.25,0],[1,0.5,0],[1,0.75,0]];outlineConnect=0;fontColor=#232F3E;fillColor=#ED7100;strokeColor=#ffffff;dashed=0;verticalLabelPosition=bottom;verticalAlign=top;align=center;html=1;fontSize=12;fontStyle=0;aspect=fixed;shape=mxgraph.aws4.resourceIcon;resIcon=mxgraph.aws4.ec2;" parent="Vf5IzShE180shMKCOmAt-80" vertex="1">
          <mxGeometry x="792" y="242" width="78" height="78" as="geometry" />
        </mxCell>
        <mxCell id="Vf5IzShE180shMKCOmAt-48" value="" style="sketch=0;points=[[0,0,0],[0.25,0,0],[0.5,0,0],[0.75,0,0],[1,0,0],[0,1,0],[0.25,1,0],[0.5,1,0],[0.75,1,0],[1,1,0],[0,0.25,0],[0,0.5,0],[0,0.75,0],[1,0.25,0],[1,0.5,0],[1,0.75,0]];outlineConnect=0;fontColor=#232F3E;fillColor=#C925D1;strokeColor=#ffffff;dashed=0;verticalLabelPosition=bottom;verticalAlign=top;align=center;html=1;fontSize=12;fontStyle=0;aspect=fixed;shape=mxgraph.aws4.resourceIcon;resIcon=mxgraph.aws4.rds;" parent="Vf5IzShE180shMKCOmAt-80" vertex="1">
          <mxGeometry x="896.4" y="242" width="78" height="78" as="geometry" />
        </mxCell>
        <mxCell id="Vf5IzShE180shMKCOmAt-50" value="&lt;font style=&quot;font-size: 14px;&quot;&gt;EC2&lt;/font&gt;" style="text;html=1;align=center;verticalAlign=middle;resizable=0;points=[];autosize=1;strokeColor=none;fillColor=none;" parent="Vf5IzShE180shMKCOmAt-80" vertex="1">
          <mxGeometry x="806" y="320" width="50" height="30" as="geometry" />
        </mxCell>
        <mxCell id="Vf5IzShE180shMKCOmAt-51" value="&lt;font style=&quot;font-size: 14px;&quot;&gt;RDS&lt;/font&gt;" style="text;html=1;align=center;verticalAlign=middle;resizable=0;points=[];autosize=1;strokeColor=none;fillColor=none;" parent="Vf5IzShE180shMKCOmAt-80" vertex="1">
          <mxGeometry x="909" y="320" width="50" height="30" as="geometry" />
        </mxCell>
        <mxCell id="Vf5IzShE180shMKCOmAt-49" value="&lt;font style=&quot;font-size: 18px;&quot;&gt;CartAPI&lt;/font&gt;" style="text;html=1;align=center;verticalAlign=middle;resizable=0;points=[];autosize=1;strokeColor=none;fillColor=none;" parent="Vf5IzShE180shMKCOmAt-80" vertex="1">
          <mxGeometry x="832.5" y="350" width="90" height="40" as="geometry" />
        </mxCell>
        <mxCell id="Vf5IzShE180shMKCOmAt-55" value="&lt;font style=&quot;font-size: 18px;&quot;&gt;OrderAPI&lt;/font&gt;" style="text;html=1;align=center;verticalAlign=middle;resizable=0;points=[];autosize=1;strokeColor=none;fillColor=none;" parent="Vf5IzShE180shMKCOmAt-80" vertex="1">
          <mxGeometry x="835" y="605" width="100" height="40" as="geometry" />
        </mxCell>
        <mxCell id="Vf5IzShE180shMKCOmAt-52" value="" style="fontStyle=0;dashed=1;html=1;whiteSpace=wrap;" parent="Vf5IzShE180shMKCOmAt-80" vertex="1">
          <mxGeometry x="775" y="485" width="215" height="120" as="geometry" />
        </mxCell>
        <mxCell id="Vf5IzShE180shMKCOmAt-53" value="" style="sketch=0;points=[[0,0,0],[0.25,0,0],[0.5,0,0],[0.75,0,0],[1,0,0],[0,1,0],[0.25,1,0],[0.5,1,0],[0.75,1,0],[1,1,0],[0,0.25,0],[0,0.5,0],[0,0.75,0],[1,0.25,0],[1,0.5,0],[1,0.75,0]];outlineConnect=0;fontColor=#232F3E;fillColor=#ED7100;strokeColor=#ffffff;dashed=0;verticalLabelPosition=bottom;verticalAlign=top;align=center;html=1;fontSize=12;fontStyle=0;aspect=fixed;shape=mxgraph.aws4.resourceIcon;resIcon=mxgraph.aws4.ec2;" parent="Vf5IzShE180shMKCOmAt-80" vertex="1">
          <mxGeometry x="792" y="497" width="78" height="78" as="geometry" />
        </mxCell>
        <mxCell id="Vf5IzShE180shMKCOmAt-54" value="" style="sketch=0;points=[[0,0,0],[0.25,0,0],[0.5,0,0],[0.75,0,0],[1,0,0],[0,1,0],[0.25,1,0],[0.5,1,0],[0.75,1,0],[1,1,0],[0,0.25,0],[0,0.5,0],[0,0.75,0],[1,0.25,0],[1,0.5,0],[1,0.75,0]];outlineConnect=0;fontColor=#232F3E;fillColor=#C925D1;strokeColor=#ffffff;dashed=0;verticalLabelPosition=bottom;verticalAlign=top;align=center;html=1;fontSize=12;fontStyle=0;aspect=fixed;shape=mxgraph.aws4.resourceIcon;resIcon=mxgraph.aws4.rds;" parent="Vf5IzShE180shMKCOmAt-80" vertex="1">
          <mxGeometry x="896.4" y="497" width="78" height="78" as="geometry" />
        </mxCell>
        <mxCell id="Vf5IzShE180shMKCOmAt-56" value="&lt;font style=&quot;font-size: 14px;&quot;&gt;EC2&lt;/font&gt;" style="text;html=1;align=center;verticalAlign=middle;resizable=0;points=[];autosize=1;strokeColor=none;fillColor=none;" parent="Vf5IzShE180shMKCOmAt-80" vertex="1">
          <mxGeometry x="806" y="575" width="50" height="30" as="geometry" />
        </mxCell>
        <mxCell id="Vf5IzShE180shMKCOmAt-57" value="&lt;font style=&quot;font-size: 14px;&quot;&gt;RDS&lt;/font&gt;" style="text;html=1;align=center;verticalAlign=middle;resizable=0;points=[];autosize=1;strokeColor=none;fillColor=none;" parent="Vf5IzShE180shMKCOmAt-80" vertex="1">
          <mxGeometry x="909" y="575" width="50" height="30" as="geometry" />
        </mxCell>
        <mxCell id="Vf5IzShE180shMKCOmAt-36" value="" style="fontStyle=0;dashed=1;html=1;whiteSpace=wrap;" parent="Vf5IzShE180shMKCOmAt-80" vertex="1">
          <mxGeometry x="80" y="89.5" width="210" height="120" as="geometry" />
        </mxCell>
        <mxCell id="Vf5IzShE180shMKCOmAt-19" value="" style="sketch=0;points=[[0,0,0],[0.25,0,0],[0.5,0,0],[0.75,0,0],[1,0,0],[0,1,0],[0.25,1,0],[0.5,1,0],[0.75,1,0],[1,1,0],[0,0.25,0],[0,0.5,0],[0,0.75,0],[1,0.25,0],[1,0.5,0],[1,0.75,0]];outlineConnect=0;fontColor=#232F3E;fillColor=#ED7100;strokeColor=#ffffff;dashed=0;verticalLabelPosition=bottom;verticalAlign=top;align=center;html=1;fontSize=12;fontStyle=0;aspect=fixed;shape=mxgraph.aws4.resourceIcon;resIcon=mxgraph.aws4.ec2;" parent="Vf5IzShE180shMKCOmAt-80" vertex="1">
          <mxGeometry x="93" y="105.5" width="78" height="78" as="geometry" />
        </mxCell>
        <mxCell id="Vf5IzShE180shMKCOmAt-20" value="" style="sketch=0;points=[[0,0,0],[0.25,0,0],[0.5,0,0],[0.75,0,0],[1,0,0],[0,1,0],[0.25,1,0],[0.5,1,0],[0.75,1,0],[1,1,0],[0,0.25,0],[0,0.5,0],[0,0.75,0],[1,0.25,0],[1,0.5,0],[1,0.75,0]];outlineConnect=0;fontColor=#232F3E;fillColor=#C925D1;strokeColor=#ffffff;dashed=0;verticalLabelPosition=bottom;verticalAlign=top;align=center;html=1;fontSize=12;fontStyle=0;aspect=fixed;shape=mxgraph.aws4.resourceIcon;resIcon=mxgraph.aws4.rds;" parent="Vf5IzShE180shMKCOmAt-80" vertex="1">
          <mxGeometry x="200" y="105.5" width="78" height="78" as="geometry" />
        </mxCell>
        <mxCell id="Vf5IzShE180shMKCOmAt-26" value="&lt;font style=&quot;font-size: 18px;&quot;&gt;Identity Server&lt;/font&gt;" style="text;html=1;align=center;verticalAlign=middle;resizable=0;points=[];autosize=1;strokeColor=none;fillColor=none;" parent="Vf5IzShE180shMKCOmAt-80" vertex="1">
          <mxGeometry x="108" y="209.5" width="140" height="40" as="geometry" />
        </mxCell>
        <mxCell id="Vf5IzShE180shMKCOmAt-37" value="&lt;font style=&quot;font-size: 14px;&quot;&gt;EC2&lt;/font&gt;" style="text;html=1;align=center;verticalAlign=middle;resizable=0;points=[];autosize=1;strokeColor=none;fillColor=none;" parent="Vf5IzShE180shMKCOmAt-80" vertex="1">
          <mxGeometry x="107" y="183.5" width="50" height="30" as="geometry" />
        </mxCell>
        <mxCell id="Vf5IzShE180shMKCOmAt-38" value="&lt;font style=&quot;font-size: 14px;&quot;&gt;RDS&lt;/font&gt;" style="text;html=1;align=center;verticalAlign=middle;resizable=0;points=[];autosize=1;strokeColor=none;fillColor=none;" parent="Vf5IzShE180shMKCOmAt-80" vertex="1">
          <mxGeometry x="214" y="183.5" width="50" height="30" as="geometry" />
        </mxCell>
        <mxCell id="Vf5IzShE180shMKCOmAt-65" value="" style="fontStyle=0;dashed=1;html=1;whiteSpace=wrap;" parent="Vf5IzShE180shMKCOmAt-80" vertex="1">
          <mxGeometry x="1420" y="231" width="215" height="120" as="geometry" />
        </mxCell>
        <mxCell id="Vf5IzShE180shMKCOmAt-66" value="" style="sketch=0;points=[[0,0,0],[0.25,0,0],[0.5,0,0],[0.75,0,0],[1,0,0],[0,1,0],[0.25,1,0],[0.5,1,0],[0.75,1,0],[1,1,0],[0,0.25,0],[0,0.5,0],[0,0.75,0],[1,0.25,0],[1,0.5,0],[1,0.75,0]];outlineConnect=0;fontColor=#232F3E;fillColor=#ED7100;strokeColor=#ffffff;dashed=0;verticalLabelPosition=bottom;verticalAlign=top;align=center;html=1;fontSize=12;fontStyle=0;aspect=fixed;shape=mxgraph.aws4.resourceIcon;resIcon=mxgraph.aws4.ec2;" parent="Vf5IzShE180shMKCOmAt-80" vertex="1">
          <mxGeometry x="1437" y="243" width="78" height="78" as="geometry" />
        </mxCell>
        <mxCell id="Vf5IzShE180shMKCOmAt-67" value="" style="sketch=0;points=[[0,0,0],[0.25,0,0],[0.5,0,0],[0.75,0,0],[1,0,0],[0,1,0],[0.25,1,0],[0.5,1,0],[0.75,1,0],[1,1,0],[0,0.25,0],[0,0.5,0],[0,0.75,0],[1,0.25,0],[1,0.5,0],[1,0.75,0]];outlineConnect=0;fontColor=#232F3E;fillColor=#C925D1;strokeColor=#ffffff;dashed=0;verticalLabelPosition=bottom;verticalAlign=top;align=center;html=1;fontSize=12;fontStyle=0;aspect=fixed;shape=mxgraph.aws4.resourceIcon;resIcon=mxgraph.aws4.rds;" parent="Vf5IzShE180shMKCOmAt-80" vertex="1">
          <mxGeometry x="1541.4" y="243" width="78" height="78" as="geometry" />
        </mxCell>
        <mxCell id="Vf5IzShE180shMKCOmAt-68" value="&lt;font style=&quot;font-size: 18px;&quot;&gt;EmailAPI&lt;/font&gt;" style="text;html=1;align=center;verticalAlign=middle;resizable=0;points=[];autosize=1;strokeColor=none;fillColor=none;" parent="Vf5IzShE180shMKCOmAt-80" vertex="1">
          <mxGeometry x="1475" y="350" width="100" height="40" as="geometry" />
        </mxCell>
        <mxCell id="Vf5IzShE180shMKCOmAt-69" value="&lt;font style=&quot;font-size: 14px;&quot;&gt;EC2&lt;/font&gt;" style="text;html=1;align=center;verticalAlign=middle;resizable=0;points=[];autosize=1;strokeColor=none;fillColor=none;" parent="Vf5IzShE180shMKCOmAt-80" vertex="1">
          <mxGeometry x="1451" y="321" width="50" height="30" as="geometry" />
        </mxCell>
        <mxCell id="Vf5IzShE180shMKCOmAt-70" value="&lt;font style=&quot;font-size: 14px;&quot;&gt;RDS&lt;/font&gt;" style="text;html=1;align=center;verticalAlign=middle;resizable=0;points=[];autosize=1;strokeColor=none;fillColor=none;" parent="Vf5IzShE180shMKCOmAt-80" vertex="1">
          <mxGeometry x="1554" y="321" width="50" height="30" as="geometry" />
        </mxCell>
        <mxCell id="Vf5IzShE180shMKCOmAt-71" value="" style="fontStyle=0;dashed=1;html=1;whiteSpace=wrap;" parent="Vf5IzShE180shMKCOmAt-80" vertex="1">
          <mxGeometry x="1420" y="485" width="215" height="120" as="geometry" />
        </mxCell>
        <mxCell id="Vf5IzShE180shMKCOmAt-72" value="" style="sketch=0;points=[[0,0,0],[0.25,0,0],[0.5,0,0],[0.75,0,0],[1,0,0],[0,1,0],[0.25,1,0],[0.5,1,0],[0.75,1,0],[1,1,0],[0,0.25,0],[0,0.5,0],[0,0.75,0],[1,0.25,0],[1,0.5,0],[1,0.75,0]];outlineConnect=0;fontColor=#232F3E;fillColor=#ED7100;strokeColor=#ffffff;dashed=0;verticalLabelPosition=bottom;verticalAlign=top;align=center;html=1;fontSize=12;fontStyle=0;aspect=fixed;shape=mxgraph.aws4.resourceIcon;resIcon=mxgraph.aws4.ec2;" parent="Vf5IzShE180shMKCOmAt-80" vertex="1">
          <mxGeometry x="1437" y="497" width="78" height="78" as="geometry" />
        </mxCell>
        <mxCell id="Vf5IzShE180shMKCOmAt-73" value="" style="sketch=0;points=[[0,0,0],[0.25,0,0],[0.5,0,0],[0.75,0,0],[1,0,0],[0,1,0],[0.25,1,0],[0.5,1,0],[0.75,1,0],[1,1,0],[0,0.25,0],[0,0.5,0],[0,0.75,0],[1,0.25,0],[1,0.5,0],[1,0.75,0]];outlineConnect=0;fontColor=#232F3E;fillColor=#C925D1;strokeColor=#ffffff;dashed=0;verticalLabelPosition=bottom;verticalAlign=top;align=center;html=1;fontSize=12;fontStyle=0;aspect=fixed;shape=mxgraph.aws4.resourceIcon;resIcon=mxgraph.aws4.rds;" parent="Vf5IzShE180shMKCOmAt-80" vertex="1">
          <mxGeometry x="1541.4" y="497" width="78" height="78" as="geometry" />
        </mxCell>
        <mxCell id="Vf5IzShE180shMKCOmAt-75" value="&lt;font style=&quot;font-size: 14px;&quot;&gt;EC2&lt;/font&gt;" style="text;html=1;align=center;verticalAlign=middle;resizable=0;points=[];autosize=1;strokeColor=none;fillColor=none;" parent="Vf5IzShE180shMKCOmAt-80" vertex="1">
          <mxGeometry x="1451" y="575" width="50" height="30" as="geometry" />
        </mxCell>
        <mxCell id="Vf5IzShE180shMKCOmAt-76" value="&lt;font style=&quot;font-size: 14px;&quot;&gt;RDS&lt;/font&gt;" style="text;html=1;align=center;verticalAlign=middle;resizable=0;points=[];autosize=1;strokeColor=none;fillColor=none;" parent="Vf5IzShE180shMKCOmAt-80" vertex="1">
          <mxGeometry x="1554" y="575" width="50" height="30" as="geometry" />
        </mxCell>
        <mxCell id="Vf5IzShE180shMKCOmAt-77" value="&lt;font style=&quot;font-size: 18px;&quot;&gt;PaymentAPI&lt;/font&gt;" style="text;html=1;align=center;verticalAlign=middle;resizable=0;points=[];autosize=1;strokeColor=none;fillColor=none;" parent="Vf5IzShE180shMKCOmAt-80" vertex="1">
          <mxGeometry x="1460" y="605" width="120" height="40" as="geometry" />
        </mxCell>
        <mxCell id="Vf5IzShE180shMKCOmAt-98" value="" style="endArrow=classic;startArrow=classic;html=1;rounded=0;exitX=0;exitY=0.566;exitDx=0;exitDy=0;exitPerimeter=0;entryX=0;entryY=0.5;entryDx=0;entryDy=0;" parent="Vf5IzShE180shMKCOmAt-80" source="Vf5IzShE180shMKCOmAt-3" target="Vf5IzShE180shMKCOmAt-46" edge="1">
          <mxGeometry width="50" height="50" relative="1" as="geometry">
            <mxPoint x="570" y="430" as="sourcePoint" />
            <mxPoint x="620" y="380" as="targetPoint" />
          </mxGeometry>
        </mxCell>
        <mxCell id="Vf5IzShE180shMKCOmAt-99" value="" style="endArrow=classic;startArrow=classic;html=1;rounded=0;entryX=0;entryY=0.5;entryDx=0;entryDy=0;" parent="Vf5IzShE180shMKCOmAt-80" target="Vf5IzShE180shMKCOmAt-52" edge="1">
          <mxGeometry width="50" height="50" relative="1" as="geometry">
            <mxPoint x="443" y="430" as="sourcePoint" />
            <mxPoint x="785" y="300" as="targetPoint" />
          </mxGeometry>
        </mxCell>
        <mxCell id="Vf5IzShE180shMKCOmAt-100" value="" style="endArrow=classic;startArrow=classic;html=1;rounded=0;exitX=0;exitY=0.75;exitDx=0;exitDy=0;exitPerimeter=0;entryX=0;entryY=0.5;entryDx=0;entryDy=0;" parent="Vf5IzShE180shMKCOmAt-80" source="Vf5IzShE180shMKCOmAt-3" target="Vf5IzShE180shMKCOmAt-41" edge="1">
          <mxGeometry width="50" height="50" relative="1" as="geometry">
            <mxPoint x="453" y="435" as="sourcePoint" />
            <mxPoint x="785" y="300" as="targetPoint" />
          </mxGeometry>
        </mxCell>
        <mxCell id="Vf5IzShE180shMKCOmAt-101" value="" style="endArrow=classic;startArrow=classic;html=1;rounded=0;exitX=0;exitY=0.25;exitDx=0;exitDy=0;exitPerimeter=0;entryX=0;entryY=0.5;entryDx=0;entryDy=0;" parent="Vf5IzShE180shMKCOmAt-80" source="Vf5IzShE180shMKCOmAt-3" target="Vf5IzShE180shMKCOmAt-58" edge="1">
          <mxGeometry width="50" height="50" relative="1" as="geometry">
            <mxPoint x="453" y="435" as="sourcePoint" />
            <mxPoint x="785" y="555" as="targetPoint" />
          </mxGeometry>
        </mxCell>
        <mxCell id="Vf5IzShE180shMKCOmAt-102" value="" style="endArrow=classic;startArrow=classic;html=1;rounded=0;exitX=1;exitY=0.5;exitDx=0;exitDy=0;entryX=0;entryY=0.75;entryDx=0;entryDy=0;entryPerimeter=0;" parent="Vf5IzShE180shMKCOmAt-80" source="Vf5IzShE180shMKCOmAt-52" target="Vf5IzShE180shMKCOmAt-21" edge="1">
          <mxGeometry width="50" height="50" relative="1" as="geometry">
            <mxPoint x="453" y="435" as="sourcePoint" />
            <mxPoint x="785" y="555" as="targetPoint" />
          </mxGeometry>
        </mxCell>
        <mxCell id="Vf5IzShE180shMKCOmAt-103" value="" style="endArrow=classic;html=1;rounded=0;entryX=0;entryY=0.25;entryDx=0;entryDy=0;entryPerimeter=0;exitX=1;exitY=0.5;exitDx=0;exitDy=0;" parent="Vf5IzShE180shMKCOmAt-80" source="Vf5IzShE180shMKCOmAt-46" target="Vf5IzShE180shMKCOmAt-21" edge="1">
          <mxGeometry width="50" height="50" relative="1" as="geometry">
            <mxPoint x="810" y="560" as="sourcePoint" />
            <mxPoint x="860" y="510" as="targetPoint" />
          </mxGeometry>
        </mxCell>
        <mxCell id="Vf5IzShE180shMKCOmAt-104" value="" style="endArrow=classic;startArrow=classic;html=1;rounded=0;exitX=0.5;exitY=0;exitDx=0;exitDy=0;" parent="Vf5IzShE180shMKCOmAt-80" source="Vf5IzShE180shMKCOmAt-107" target="Vf5IzShE180shMKCOmAt-26" edge="1">
          <mxGeometry width="50" height="50" relative="1" as="geometry">
            <mxPoint x="178" y="385.5" as="sourcePoint" />
            <mxPoint x="330" y="380" as="targetPoint" />
          </mxGeometry>
        </mxCell>
        <mxCell id="Vf5IzShE180shMKCOmAt-105" value="" style="endArrow=classic;startArrow=classic;html=1;rounded=0;entryX=1;entryY=0.5;entryDx=0;entryDy=0;entryPerimeter=0;exitX=0.984;exitY=0.422;exitDx=0;exitDy=0;exitPerimeter=0;" parent="Vf5IzShE180shMKCOmAt-80" source="Vf5IzShE180shMKCOmAt-107" target="Vf5IzShE180shMKCOmAt-3" edge="1">
          <mxGeometry width="50" height="50" relative="1" as="geometry">
            <mxPoint x="230" y="425" as="sourcePoint" />
            <mxPoint x="330" y="380" as="targetPoint" />
          </mxGeometry>
        </mxCell>
        <mxCell id="Vf5IzShE180shMKCOmAt-110" value="&lt;font style=&quot;font-size: 14px;&quot;&gt;EC2&lt;/font&gt;" style="text;html=1;align=center;verticalAlign=middle;resizable=0;points=[];autosize=1;strokeColor=none;fillColor=none;" parent="Vf5IzShE180shMKCOmAt-80" vertex="1">
          <mxGeometry x="153" y="463.5" width="50" height="30" as="geometry" />
        </mxCell>
        <mxCell id="Vf5IzShE180shMKCOmAt-115" value="" style="endArrow=classic;html=1;rounded=0;entryX=0;entryY=0.5;entryDx=0;entryDy=0;exitX=1;exitY=0.25;exitDx=0;exitDy=0;exitPerimeter=0;" parent="Vf5IzShE180shMKCOmAt-80" source="Vf5IzShE180shMKCOmAt-21" target="Vf5IzShE180shMKCOmAt-65" edge="1">
          <mxGeometry width="50" height="50" relative="1" as="geometry">
            <mxPoint x="1000" y="300" as="sourcePoint" />
            <mxPoint x="1190" y="435" as="targetPoint" />
          </mxGeometry>
        </mxCell>
        <mxCell id="Vf5IzShE180shMKCOmAt-116" value="" style="endArrow=classic;startArrow=classic;html=1;rounded=0;entryX=0;entryY=0.5;entryDx=0;entryDy=0;" parent="Vf5IzShE180shMKCOmAt-80" source="Vf5IzShE180shMKCOmAt-21" target="Vf5IzShE180shMKCOmAt-71" edge="1">
          <mxGeometry width="50" height="50" relative="1" as="geometry">
            <mxPoint x="1000" y="555" as="sourcePoint" />
            <mxPoint x="1190" y="435" as="targetPoint" />
          </mxGeometry>
        </mxCell>
        <mxCell id="Vf5IzShE180shMKCOmAt-118" value="" style="sketch=0;points=[[0,0,0],[0.25,0,0],[0.5,0,0],[0.75,0,0],[1,0,0],[0,1,0],[0.25,1,0],[0.5,1,0],[0.75,1,0],[1,1,0],[0,0.25,0],[0,0.5,0],[0,0.75,0],[1,0.25,0],[1,0.5,0],[1,0.75,0]];outlineConnect=0;fontColor=#232F3E;fillColor=#ED7100;strokeColor=#ffffff;dashed=0;verticalLabelPosition=bottom;verticalAlign=top;align=center;html=1;fontSize=12;fontStyle=0;aspect=fixed;shape=mxgraph.aws4.resourceIcon;resIcon=mxgraph.aws4.ec2;" parent="Vf5IzShE180shMKCOmAt-80" vertex="1">
          <mxGeometry x="139" y="386.25" width="78" height="78" as="geometry" />
        </mxCell>
        <mxCell id="r7-quAs3xc2niYGAmMQ9-4" value="" style="sketch=0;points=[[0,0,0],[0.25,0,0],[0.5,0,0],[0.75,0,0],[1,0,0],[0,1,0],[0.25,1,0],[0.5,1,0],[0.75,1,0],[1,1,0],[0,0.25,0],[0,0.5,0],[0,0.75,0],[1,0.25,0],[1,0.5,0],[1,0.75,0]];points=[[0,0,0],[0.25,0,0],[0.5,0,0],[0.75,0,0],[1,0,0],[0,1,0],[0.25,1,0],[0.5,1,0],[0.75,1,0],[1,1,0],[0,0.25,0],[0,0.5,0],[0,0.75,0],[1,0.25,0],[1,0.5,0],[1,0.75,0]];outlineConnect=0;fontColor=#232F3E;fillColor=#E7157B;strokeColor=#ffffff;dashed=0;verticalLabelPosition=bottom;verticalAlign=top;align=center;html=1;fontSize=12;fontStyle=0;aspect=fixed;shape=mxgraph.aws4.resourceIcon;resIcon=mxgraph.aws4.cloudtrail;" vertex="1" parent="Vf5IzShE180shMKCOmAt-81">
          <mxGeometry x="110" y="30" width="78" height="78" as="geometry" />
        </mxCell>
        <mxCell id="r7-quAs3xc2niYGAmMQ9-5" value="" style="sketch=0;points=[[0,0,0],[0.25,0,0],[0.5,0,0],[0.75,0,0],[1,0,0],[0,1,0],[0.25,1,0],[0.5,1,0],[0.75,1,0],[1,1,0],[0,0.25,0],[0,0.5,0],[0,0.75,0],[1,0.25,0],[1,0.5,0],[1,0.75,0]];outlineConnect=0;fontColor=#232F3E;fillColor=#DD344C;strokeColor=#ffffff;dashed=0;verticalLabelPosition=bottom;verticalAlign=top;align=center;html=1;fontSize=12;fontStyle=0;aspect=fixed;shape=mxgraph.aws4.resourceIcon;resIcon=mxgraph.aws4.waf;" vertex="1" parent="Vf5IzShE180shMKCOmAt-81">
          <mxGeometry x="110" y="812" width="78" height="78" as="geometry" />
        </mxCell>
        <mxCell id="r7-quAs3xc2niYGAmMQ9-6" value="" style="sketch=0;points=[[0,0,0],[0.25,0,0],[0.5,0,0],[0.75,0,0],[1,0,0],[0,1,0],[0.25,1,0],[0.5,1,0],[0.75,1,0],[1,1,0],[0,0.25,0],[0,0.5,0],[0,0.75,0],[1,0.25,0],[1,0.5,0],[1,0.75,0]];outlineConnect=0;fontColor=#232F3E;fillColor=#DD344C;strokeColor=#ffffff;dashed=0;verticalLabelPosition=bottom;verticalAlign=top;align=center;html=1;fontSize=12;fontStyle=0;aspect=fixed;shape=mxgraph.aws4.resourceIcon;resIcon=mxgraph.aws4.shield;" vertex="1" parent="Vf5IzShE180shMKCOmAt-81">
          <mxGeometry x="110" y="660" width="78" height="78" as="geometry" />
        </mxCell>
        <mxCell id="r7-quAs3xc2niYGAmMQ9-2" value="" style="sketch=0;points=[[0,0,0],[0.25,0,0],[0.5,0,0],[0.75,0,0],[1,0,0],[0,1,0],[0.25,1,0],[0.5,1,0],[0.75,1,0],[1,1,0],[0,0.25,0],[0,0.5,0],[0,0.75,0],[1,0.25,0],[1,0.5,0],[1,0.75,0]];outlineConnect=0;fontColor=#232F3E;fillColor=#8C4FFF;strokeColor=#ffffff;dashed=0;verticalLabelPosition=bottom;verticalAlign=top;align=center;html=1;fontSize=12;fontStyle=0;aspect=fixed;shape=mxgraph.aws4.resourceIcon;resIcon=mxgraph.aws4.cloudfront;" vertex="1" parent="Vf5IzShE180shMKCOmAt-81">
          <mxGeometry x="-40" y="435" width="78" height="78" as="geometry" />
        </mxCell>
        <mxCell id="Vf5IzShE180shMKCOmAt-106" value="" style="endArrow=classic;startArrow=classic;html=1;rounded=0;entryX=-0.024;entryY=0.4;entryDx=0;entryDy=0;entryPerimeter=0;" parent="Vf5IzShE180shMKCOmAt-81" source="r7-quAs3xc2niYGAmMQ9-2" edge="1" target="Vf5IzShE180shMKCOmAt-107">
          <mxGeometry width="50" height="50" relative="1" as="geometry">
            <mxPoint x="490" y="480" as="sourcePoint" />
            <mxPoint x="329" y="473" as="targetPoint" />
          </mxGeometry>
        </mxCell>
        <mxCell id="r7-quAs3xc2niYGAmMQ9-3" value="" style="sketch=0;points=[[0,0,0],[0.25,0,0],[0.5,0,0],[0.75,0,0],[1,0,0],[0,1,0],[0.25,1,0],[0.5,1,0],[0.75,1,0],[1,1,0],[0,0.25,0],[0,0.5,0],[0,0.75,0],[1,0.25,0],[1,0.5,0],[1,0.75,0]];points=[[0,0,0],[0.25,0,0],[0.5,0,0],[0.75,0,0],[1,0,0],[0,1,0],[0.25,1,0],[0.5,1,0],[0.75,1,0],[1,1,0],[0,0.25,0],[0,0.5,0],[0,0.75,0],[1,0.25,0],[1,0.5,0],[1,0.75,0]];outlineConnect=0;fontColor=#232F3E;fillColor=#E7157B;strokeColor=#ffffff;dashed=0;verticalLabelPosition=bottom;verticalAlign=top;align=center;html=1;fontSize=12;fontStyle=0;aspect=fixed;shape=mxgraph.aws4.resourceIcon;resIcon=mxgraph.aws4.cloudwatch_2;" vertex="1" parent="Vf5IzShE180shMKCOmAt-81">
          <mxGeometry x="110" y="170" width="78" height="78" as="geometry" />
        </mxCell>
        <mxCell id="r7-quAs3xc2niYGAmMQ9-11" value="&lt;font style=&quot;font-size: 18px;&quot;&gt;AWS Cloudwatch&lt;/font&gt;" style="text;html=1;align=center;verticalAlign=middle;resizable=0;points=[];autosize=1;strokeColor=none;fillColor=none;" vertex="1" parent="Vf5IzShE180shMKCOmAt-81">
          <mxGeometry x="69" y="248" width="160" height="40" as="geometry" />
        </mxCell>
        <mxCell id="r7-quAs3xc2niYGAmMQ9-12" value="&lt;font style=&quot;font-size: 18px;&quot;&gt;AWS Cloudtrail&lt;/font&gt;" style="text;html=1;align=center;verticalAlign=middle;resizable=0;points=[];autosize=1;strokeColor=none;fillColor=none;" vertex="1" parent="Vf5IzShE180shMKCOmAt-81">
          <mxGeometry x="79" y="108" width="140" height="40" as="geometry" />
        </mxCell>
        <mxCell id="r7-quAs3xc2niYGAmMQ9-13" value="&lt;font style=&quot;font-size: 18px;&quot;&gt;AWS Shield&lt;/font&gt;" style="text;html=1;align=center;verticalAlign=middle;resizable=0;points=[];autosize=1;strokeColor=none;fillColor=none;" vertex="1" parent="Vf5IzShE180shMKCOmAt-81">
          <mxGeometry x="89" y="738" width="120" height="40" as="geometry" />
        </mxCell>
        <mxCell id="r7-quAs3xc2niYGAmMQ9-14" value="&lt;font style=&quot;font-size: 18px;&quot;&gt;AWS WAF&lt;/font&gt;" style="text;html=1;align=center;verticalAlign=middle;resizable=0;points=[];autosize=1;strokeColor=none;fillColor=none;" vertex="1" parent="Vf5IzShE180shMKCOmAt-81">
          <mxGeometry x="94" y="890" width="110" height="40" as="geometry" />
        </mxCell>
        <mxCell id="r7-quAs3xc2niYGAmMQ9-1" value="Region" style="points=[[0,0],[0.25,0],[0.5,0],[0.75,0],[1,0],[1,0.25],[1,0.5],[1,0.75],[1,1],[0.75,1],[0.5,1],[0.25,1],[0,1],[0,0.75],[0,0.5],[0,0.25]];outlineConnect=0;gradientColor=none;html=1;whiteSpace=wrap;fontSize=12;fontStyle=0;container=1;pointerEvents=0;collapsible=0;recursiveResize=0;shape=mxgraph.aws4.group;grIcon=mxgraph.aws4.group_region;strokeColor=#00A4A6;fillColor=none;verticalAlign=top;align=left;spacingLeft=30;fontColor=#147EBA;dashed=1;" vertex="1" parent="Vf5IzShE180shMKCOmAt-81">
          <mxGeometry x="330" y="20" width="1700" height="910" as="geometry" />
        </mxCell>
        <mxCell id="r7-quAs3xc2niYGAmMQ9-17" value="" style="sketch=0;points=[[0,0,0],[0.25,0,0],[0.5,0,0],[0.75,0,0],[1,0,0],[0,1,0],[0.25,1,0],[0.5,1,0],[0.75,1,0],[1,1,0],[0,0.25,0],[0,0.5,0],[0,0.75,0],[1,0.25,0],[1,0.5,0],[1,0.75,0]];outlineConnect=0;fontColor=#232F3E;fillColor=#ED7100;strokeColor=#ffffff;dashed=0;verticalLabelPosition=bottom;verticalAlign=top;align=center;html=1;fontSize=12;fontStyle=0;aspect=fixed;shape=mxgraph.aws4.resourceIcon;resIcon=mxgraph.aws4.elastic_load_balancing;" vertex="1" parent="Vf5IzShE180shMKCOmAt-81">
          <mxGeometry x="110" y="310" width="78" height="78" as="geometry" />
        </mxCell>
        <mxCell id="r7-quAs3xc2niYGAmMQ9-19" value="&lt;font style=&quot;font-size: 18px;&quot;&gt;AWS Load Balancer&lt;/font&gt;" style="text;html=1;align=center;verticalAlign=middle;resizable=0;points=[];autosize=1;strokeColor=none;fillColor=none;" vertex="1" parent="Vf5IzShE180shMKCOmAt-81">
          <mxGeometry x="59" y="395" width="180" height="40" as="geometry" />
        </mxCell>
        <mxCell id="r7-quAs3xc2niYGAmMQ9-18" value="" style="sketch=0;points=[[0,0,0],[0.25,0,0],[0.5,0,0],[0.75,0,0],[1,0,0],[0,1,0],[0.25,1,0],[0.5,1,0],[0.75,1,0],[1,1,0],[0,0.25,0],[0,0.5,0],[0,0.75,0],[1,0.25,0],[1,0.5,0],[1,0.75,0]];outlineConnect=0;fontColor=#232F3E;fillColor=#ED7100;strokeColor=#ffffff;dashed=0;verticalLabelPosition=bottom;verticalAlign=top;align=center;html=1;fontSize=12;fontStyle=0;aspect=fixed;shape=mxgraph.aws4.resourceIcon;resIcon=mxgraph.aws4.auto_scaling3;" vertex="1" parent="Vf5IzShE180shMKCOmAt-81">
          <mxGeometry x="110" y="513" width="78" height="78" as="geometry" />
        </mxCell>
        <mxCell id="r7-quAs3xc2niYGAmMQ9-20" value="&lt;font style=&quot;font-size: 18px;&quot;&gt;AWS Auto Scaling&lt;/font&gt;" style="text;html=1;align=center;verticalAlign=middle;resizable=0;points=[];autosize=1;strokeColor=none;fillColor=none;" vertex="1" parent="Vf5IzShE180shMKCOmAt-81">
          <mxGeometry x="64" y="591" width="170" height="40" as="geometry" />
        </mxCell>
        <mxCell id="r7-quAs3xc2niYGAmMQ9-7" value="" style="endArrow=classic;startArrow=classic;html=1;rounded=0;" edge="1" parent="1" source="xBQm6iWofpUOaXLiv4rK-24" target="r7-quAs3xc2niYGAmMQ9-2">
          <mxGeometry width="50" height="50" relative="1" as="geometry">
            <mxPoint x="-1046" y="493" as="sourcePoint" />
            <mxPoint x="-431" y="493" as="targetPoint" />
          </mxGeometry>
        </mxCell>
        <mxCell id="r7-quAs3xc2niYGAmMQ9-8" value="&lt;font style=&quot;font-size: 18px;&quot;&gt;AWS Cloudfront&lt;/font&gt;" style="text;html=1;align=center;verticalAlign=middle;resizable=0;points=[];autosize=1;strokeColor=none;fillColor=none;" vertex="1" parent="1">
          <mxGeometry x="-840" y="532" width="150" height="40" as="geometry" />
        </mxCell>
      </root>
    </mxGraphModel>
  </diagram>
</mxfile>
